<?xml version="1.0" encoding="UTF-8" standalone="no"?>
<!DOCTYPE svg PUBLIC "-//W3C//DTD SVG 1.1//EN" "http://www.w3.org/Graphics/SVG/1.1/DTD/svg11.dtd">
<svg width="100%" height="100%" viewBox="0 0 40 40" version="1.1" xmlns="http://www.w3.org/2000/svg" xmlns:xlink="http://www.w3.org/1999/xlink" xml:space="preserve" xmlns:serif="http://www.serif.com/" style="fill-rule:evenodd;clip-rule:evenodd;stroke-linejoin:round;stroke-miterlimit:2;">
    <g transform="matrix(1.16704,0,0,1.05262,-8.00871,-5.2628)">
        <path d="M34.891,41.954C35.602,41.18 35.971,40.303 35.998,39.323C36.026,38.342 35.657,37.491 34.891,36.769L21.435,24.077L34.973,11.308C35.684,10.638 36.026,9.773 35.998,8.716C35.971,7.658 35.602,6.794 34.891,6.123C34.07,5.349 33.154,4.975 32.142,5.001C31.13,5.027 30.242,5.401 29.476,6.123L13.149,21.524C12.766,21.885 12.479,22.285 12.287,22.723C12.096,23.162 12,23.613 12,24.077C12,24.542 12.096,24.993 12.287,25.432C12.479,25.87 12.766,26.27 13.149,26.631L29.394,41.954C30.16,42.676 31.062,43.024 32.101,42.999C33.141,42.973 34.07,42.625 34.891,41.954Z" style="fill-rule:nonzero;"/>
    </g>
</svg>
