<?xml version="1.0" encoding="UTF-8" standalone="no"?>
<!DOCTYPE svg PUBLIC "-//W3C//DTD SVG 1.1//EN" "http://www.w3.org/Graphics/SVG/1.1/DTD/svg11.dtd">
<svg width="100%" height="100%" viewBox="0 0 40 40" version="1.1" xmlns="http://www.w3.org/2000/svg" xmlns:xlink="http://www.w3.org/1999/xlink" xml:space="preserve" xmlns:serif="http://www.serif.com/" style="fill-rule:evenodd;clip-rule:evenodd;stroke-linejoin:round;stroke-miterlimit:2;">
    <g transform="matrix(1.21144,0,0,0.999357,-9.07403,-3.99744)">
        <path d="M13.301,43.163C12.768,42.596 12.493,41.93 12.476,41.163C12.46,40.396 12.735,39.73 13.301,39.163L28.451,24.013L13.301,8.863C12.768,8.33 12.485,7.671 12.451,6.888C12.418,6.105 12.685,5.43 13.251,4.863C13.785,4.296 14.451,4.005 15.251,3.988C16.051,3.971 16.718,4.246 17.251,4.813L34.851,22.363C35.085,22.596 35.26,22.855 35.376,23.138C35.493,23.421 35.551,23.713 35.551,24.013C35.551,24.313 35.493,24.605 35.376,24.888C35.26,25.171 35.085,25.43 34.851,25.663L17.301,43.213C16.768,43.746 16.11,44.013 15.326,44.013C14.543,44.013 13.868,43.73 13.301,43.163Z" style="fill-rule:nonzero;"/>
    </g>
</svg>
