<?xml version="1.0" encoding="UTF-8" standalone="no"?><!DOCTYPE svg PUBLIC "-//W3C//DTD SVG 1.1//EN" "http://www.w3.org/Graphics/SVG/1.1/DTD/svg11.dtd"><svg width="100%" height="100%" viewBox="0 0 40 40" version="1.1" xmlns="http://www.w3.org/2000/svg" xmlns:xlink="http://www.w3.org/1999/xlink" xml:space="preserve" xmlns:serif="http://www.serif.com/" style="fill-rule:evenodd;clip-rule:evenodd;stroke-linejoin:round;stroke-miterlimit:2;"><path d="M17.778,40l-0,-13.333l4.444,-0l0,4.444l17.778,0l0,4.445l-17.778,-0l0,4.444l-4.444,0Zm-17.778,-4.444l-0,-4.445l13.333,0l0,4.445l-13.333,-0Zm8.889,-8.889l-0,-4.445l-8.889,0l-0,-4.444l8.889,-0l-0,-4.445l4.444,0l0,13.334l-4.444,-0Zm8.889,-4.445l-0,-4.444l22.222,-0l0,4.444l-22.222,0Zm8.889,-8.889l-0,-13.333l4.444,0l0,4.444l8.889,0l0,4.445l-8.889,-0l0,4.444l-4.444,0Zm-26.667,-4.444l0,-4.445l22.222,0l0,4.445l-22.222,-0Z" style="fill-rule:nonzero;"/></svg>