<?xml version="1.0" encoding="UTF-8" standalone="no"?>
<!DOCTYPE svg PUBLIC "-//W3C//DTD SVG 1.1//EN" "http://www.w3.org/Graphics/SVG/1.1/DTD/svg11.dtd">
<svg width="100%" height="100%" viewBox="0 0 40 40" version="1.1" xmlns="http://www.w3.org/2000/svg" xmlns:xlink="http://www.w3.org/1999/xlink" xml:space="preserve" xmlns:serif="http://www.serif.com/" style="fill-rule:evenodd;clip-rule:evenodd;stroke-linejoin:round;stroke-miterlimit:2;">
    <g transform="matrix(1.14778,0,0,1.15774,-7.57532,-7.75687)">
        <path d="M23.85,41.25C19.083,41.25 15.017,39.567 11.65,36.2C8.283,32.833 6.6,28.767 6.6,24C6.6,19.233 8.283,15.158 11.65,11.775C15.017,8.392 19.083,6.7 23.85,6.7C26.883,6.7 29.558,7.308 31.875,8.525C34.192,9.742 36.183,11.45 37.85,13.65L37.85,6.7L41.45,6.7L41.45,21.25L26.85,21.25L26.85,17.7L35.05,17.7C33.75,15.833 32.183,14.325 30.35,13.175C28.517,12.025 26.35,11.45 23.85,11.45C20.35,11.45 17.383,12.667 14.95,15.1C12.517,17.533 11.3,20.5 11.3,24C11.3,27.5 12.517,30.467 14.95,32.9C17.383,35.333 20.35,36.55 23.85,36.55C26.45,36.55 28.858,35.8 31.075,34.3C33.292,32.8 34.867,30.817 35.8,28.35L40.65,28.35C39.65,32.183 37.592,35.292 34.475,37.675C31.358,40.058 27.817,41.25 23.85,41.25Z" style="fill-rule:nonzero;"/>
    </g>
</svg>
