<?xml version="1.0" encoding="UTF-8" standalone="no"?>
<!DOCTYPE svg PUBLIC "-//W3C//DTD SVG 1.1//EN" "http://www.w3.org/Graphics/SVG/1.1/DTD/svg11.dtd">
<svg width="100%" height="100%" viewBox="0 0 40 40" version="1.1" xmlns="http://www.w3.org/2000/svg" xmlns:xlink="http://www.w3.org/1999/xlink" xml:space="preserve" xmlns:serif="http://www.serif.com/" style="fill-rule:evenodd;clip-rule:evenodd;stroke-linejoin:round;stroke-miterlimit:2;">
    <g transform="matrix(1.05263,0,0,1.05263,-5.26316,-5.26316)">
        <path d="M5,43L5,38.153L31.147,38.153L31.147,43L5,43ZM32.304,26.604C29.329,26.604 26.815,25.56 24.763,23.471C22.711,21.383 21.685,18.831 21.685,15.815C21.685,12.798 22.716,10.242 24.776,8.145C26.836,6.048 29.354,5 32.33,5C35.306,5 37.828,6.057 39.897,8.171C41.966,10.285 43,12.842 43,15.841C43,18.857 41.957,21.405 39.872,23.484C37.786,25.564 35.263,26.604 32.304,26.604ZM5,23.923L5,19.076L17.935,19.076C18.14,19.981 18.418,20.834 18.769,21.637C19.119,22.439 19.532,23.201 20.007,23.923L5,23.923ZM5,33.461L5,28.615L25.297,28.615C26.138,29.246 27.052,29.73 28.039,30.068C29.026,30.405 30.062,30.608 31.147,30.677L31.147,33.461L5,33.461ZM30.639,22.685L34.047,22.685L34.047,14.436L30.639,14.436L30.639,22.685ZM32.317,12.373C32.792,12.373 33.199,12.21 33.538,11.883C33.877,11.557 34.047,11.153 34.047,10.672C34.047,10.19 33.881,9.778 33.548,9.434C33.216,9.09 32.806,8.919 32.317,8.919C31.842,8.919 31.444,9.087 31.122,9.424C30.8,9.761 30.639,10.177 30.639,10.672C30.639,11.153 30.8,11.557 31.122,11.883C31.444,12.21 31.842,12.373 32.317,12.373Z" style="fill-rule:nonzero;"/>
    </g>
</svg>
