<?xml version="1.0" encoding="UTF-8" standalone="no"?><!DOCTYPE svg PUBLIC "-//W3C//DTD SVG 1.1//EN" "http://www.w3.org/Graphics/SVG/1.1/DTD/svg11.dtd"><svg width="100%" height="100%" viewBox="0 0 40 40" version="1.1" xmlns="http://www.w3.org/2000/svg" xmlns:xlink="http://www.w3.org/1999/xlink" xml:space="preserve" xmlns:serif="http://www.serif.com/" style="fill-rule:evenodd;clip-rule:evenodd;stroke-linejoin:round;stroke-miterlimit:2;"><path d="M3.452,30.483l7.971,0c-0.748,-0.638 -1.409,-1.4 -1.984,-2.287c-0.576,-0.886 -1.031,-1.863 -1.367,-2.93l-4.62,0l-0,5.217Zm16.528,0c2.599,0 4.83,-1.022 6.691,-3.067c1.861,-2.045 2.791,-4.52 2.791,-7.424c0,-2.905 -0.927,-5.397 -2.782,-7.476c-1.855,-2.079 -4.082,-3.119 -6.682,-3.119c-2.6,0 -4.818,1.037 -6.655,3.109c-1.836,2.072 -2.755,4.561 -2.755,7.465c0,2.905 0.916,5.383 2.746,7.435c1.831,2.052 4.046,3.077 6.646,3.077Zm11.977,-15.869l4.574,0l0,-5.217l-7.946,0c0.733,0.694 1.387,1.481 1.964,2.361c0.576,0.881 1.045,1.833 1.408,2.856Zm-31.921,22.176l0,-17.83l3.416,0l-0,2.49l3.783,0c-0.014,-0.222 -0.028,-0.454 -0.042,-0.695c-0.013,-0.242 -0.02,-0.501 -0.02,-0.777c-0,-4.027 1.237,-7.433 3.711,-10.218c2.474,-2.786 5.507,-4.179 9.099,-4.179l16.548,0l0,-2.49l3.416,0l0,17.83l-3.416,-0l0,-2.491l-3.739,0c-0.006,0.271 0.007,0.531 0.039,0.78c0.031,0.25 0.047,0.506 0.047,0.768c-0,4.019 -1.247,7.411 -3.74,10.175c-2.493,2.764 -5.539,4.146 -9.137,4.146l-16.549,0l-0,2.491l-3.416,-0Zm3.416,-6.307l-0,-5.217l-0,5.217Zm33.079,-15.869l0,-5.217l0,5.217Zm-16.54,10.682c-0.923,-0 -1.688,-0.348 -2.293,-1.042c-0.606,-0.695 -0.908,-1.565 -0.908,-2.611c-0,-0.724 0.112,-1.364 0.335,-1.919c0.224,-0.555 0.71,-1.464 1.459,-2.728l1.408,-2.363l1.455,2.341c0.717,1.278 1.198,2.195 1.445,2.75c0.246,0.555 0.369,1.195 0.369,1.919c-0,1.046 -0.314,1.916 -0.943,2.611c-0.628,0.694 -1.404,1.042 -2.327,1.042Z" style="fill-rule:nonzero;"/></svg>