<?xml version="1.0" encoding="UTF-8" standalone="no"?><!DOCTYPE svg PUBLIC "-//W3C//DTD SVG 1.1//EN" "http://www.w3.org/Graphics/SVG/1.1/DTD/svg11.dtd"><svg width="100%" height="100%" viewBox="0 0 40 40" version="1.1" xmlns="http://www.w3.org/2000/svg" xmlns:xlink="http://www.w3.org/1999/xlink" xml:space="preserve" xmlns:serif="http://www.serif.com/" style="fill-rule:evenodd;clip-rule:evenodd;stroke-linejoin:round;stroke-miterlimit:2;"><path d="M20,40c-2.778,0 -5.383,-0.519 -7.817,-1.558c-2.433,-1.039 -4.552,-2.461 -6.358,-4.267c-1.806,-1.806 -3.228,-3.925 -4.267,-6.358c-1.039,-2.434 -1.558,-5.039 -1.558,-7.817c-0,-2.783 0.519,-5.39 1.558,-7.82c1.039,-2.431 2.461,-4.549 4.267,-6.355c1.806,-1.806 3.925,-3.228 6.358,-4.267c2.434,-1.039 5.039,-1.558 7.817,-1.558c2.783,0 5.39,0.519 7.82,1.558c2.431,1.039 4.549,2.461 6.355,4.267c1.806,1.806 3.228,3.924 4.267,6.355c1.039,2.43 1.558,5.037 1.558,7.82c0,2.778 -0.519,5.383 -1.558,7.817c-1.039,2.433 -2.461,4.552 -4.267,6.358c-1.806,1.806 -3.924,3.228 -6.355,4.267c-2.43,1.039 -5.037,1.558 -7.82,1.558Zm0.007,-11.233c2.04,-0 4.026,0.286 5.96,0.858c1.933,0.572 3.755,1.419 5.466,2.542c1.667,-1.6 2.956,-3.447 3.867,-5.54c0.911,-2.092 1.367,-4.302 1.367,-6.627c-0,-4.653 -1.615,-8.594 -4.844,-11.823c-3.229,-3.229 -7.17,-4.844 -11.823,-4.844c-4.653,0 -8.594,1.615 -11.823,4.844c-3.229,3.229 -4.844,7.17 -4.844,11.823c0,2.325 0.453,4.542 1.359,6.652c0.905,2.11 2.208,3.948 3.908,5.515c1.689,-1.123 3.502,-1.97 5.44,-2.542c1.938,-0.572 3.927,-0.858 5.967,-0.858Zm-0.007,3.333c-1.456,0 -2.894,0.194 -4.317,0.583c-1.422,0.389 -2.794,0.961 -4.116,1.717c1.322,0.733 2.694,1.294 4.116,1.683c1.423,0.389 2.861,0.584 4.317,0.584c1.456,-0 2.894,-0.195 4.317,-0.584c1.422,-0.389 2.794,-0.95 4.116,-1.683c-1.322,-0.756 -2.694,-1.328 -4.116,-1.717c-1.423,-0.389 -2.861,-0.583 -4.317,-0.583Zm-10.427,-14.7c0.473,0 0.869,-0.16 1.185,-0.481c0.317,-0.32 0.475,-0.718 0.475,-1.191c0,-0.474 -0.16,-0.87 -0.481,-1.186c-0.32,-0.317 -0.717,-0.475 -1.191,-0.475c-0.474,-0 -0.869,0.16 -1.186,0.481c-0.317,0.32 -0.475,0.717 -0.475,1.191c0,0.474 0.16,0.869 0.481,1.186c0.32,0.317 0.718,0.475 1.192,0.475Zm6.366,-6.2c0.474,0 0.869,-0.16 1.186,-0.481c0.317,-0.32 0.475,-0.718 0.475,-1.192c0,-0.473 -0.16,-0.869 -0.481,-1.185c-0.32,-0.317 -0.718,-0.475 -1.191,-0.475c-0.474,-0 -0.87,0.16 -1.186,0.481c-0.317,0.32 -0.475,0.717 -0.475,1.191c-0,0.474 0.16,0.869 0.481,1.186c0.32,0.317 0.717,0.475 1.191,0.475Zm14.534,6.2c0.473,0 0.869,-0.16 1.185,-0.481c0.317,-0.32 0.475,-0.718 0.475,-1.191c0,-0.474 -0.16,-0.87 -0.48,-1.186c-0.321,-0.317 -0.718,-0.475 -1.192,-0.475c-0.474,-0 -0.869,0.16 -1.186,0.481c-0.317,0.32 -0.475,0.717 -0.475,1.191c0,0.474 0.16,0.869 0.481,1.186c0.32,0.317 0.718,0.475 1.192,0.475Zm-10.476,6.367c1.035,-0 1.922,-0.369 2.661,-1.107c0.739,-0.737 1.109,-1.624 1.109,-2.66c-0,-0.479 -0.089,-0.949 -0.267,-1.409c-0.178,-0.461 -0.433,-0.858 -0.767,-1.191l3.134,-7.467c0.189,-0.422 0.208,-0.841 0.058,-1.258c-0.15,-0.417 -0.44,-0.719 -0.87,-0.908c-0.403,-0.189 -0.826,-0.193 -1.268,-0.011c-0.442,0.182 -0.749,0.496 -0.92,0.944l-3.2,7.533c-0.978,0.1 -1.795,0.509 -2.45,1.225c-0.656,0.717 -0.984,1.564 -0.984,2.542c0,1.036 0.369,1.923 1.106,2.66c0.737,0.738 1.623,1.107 2.658,1.107Z" style="fill-rule:nonzero;"/></svg>