<?xml version="1.0" encoding="UTF-8" standalone="no"?><!DOCTYPE svg PUBLIC "-//W3C//DTD SVG 1.1//EN" "http://www.w3.org/Graphics/SVG/1.1/DTD/svg11.dtd"><svg width="100%" height="100%" viewBox="0 0 48 48" version="1.1" xmlns="http://www.w3.org/2000/svg" xmlns:xlink="http://www.w3.org/1999/xlink" xml:space="preserve" xmlns:serif="http://www.serif.com/" style="fill-rule:evenodd;clip-rule:evenodd;stroke-linejoin:round;stroke-miterlimit:2;"><path d="M18,6.025l0,-3l12,-0l0,3l-12,-0Zm4.5,22.35l3,0l0,-11.5l-3,0l0,11.5Zm1.5,16.6c-2.467,0 -4.792,-0.475 -6.975,-1.425c-2.183,-0.95 -4.092,-2.242 -5.725,-3.875c-1.633,-1.633 -2.925,-3.542 -3.875,-5.725c-0.95,-2.183 -1.425,-4.508 -1.425,-6.975c0,-2.467 0.475,-4.792 1.425,-6.975c0.95,-2.183 2.242,-4.092 3.875,-5.725c1.633,-1.633 3.542,-2.925 5.725,-3.875c2.183,-0.95 4.508,-1.425 6.975,-1.425c2.233,0 4.333,0.375 6.3,1.125c1.967,0.75 3.717,1.792 5.25,3.125l2.55,-2.55l2.1,2.1l-2.55,2.55c1.2,1.333 2.225,2.95 3.075,4.85c0.85,1.9 1.275,4.167 1.275,6.8c0,2.467 -0.475,4.792 -1.425,6.975c-0.95,2.183 -2.242,4.092 -3.875,5.725c-1.633,1.633 -3.542,2.925 -5.725,3.875c-2.183,0.95 -4.508,1.425 -6.975,1.425Zm0,-3c4.167,0 7.708,-1.458 10.625,-4.375c2.917,-2.917 4.375,-6.458 4.375,-10.625c0,-4.167 -1.458,-7.708 -4.375,-10.625c-2.917,-2.917 -6.458,-4.375 -10.625,-4.375c-4.167,0 -7.708,1.458 -10.625,4.375c-2.917,2.917 -4.375,6.458 -4.375,10.625c0,4.167 1.458,7.708 4.375,10.625c2.917,2.917 6.458,4.375 10.625,4.375Z" style="fill-rule:nonzero;"/></svg>