<?xml version="1.0" encoding="UTF-8" standalone="no"?><!DOCTYPE svg PUBLIC "-//W3C//DTD SVG 1.1//EN" "http://www.w3.org/Graphics/SVG/1.1/DTD/svg11.dtd"><svg width="100%" height="100%" viewBox="0 0 40 40" version="1.1" xmlns="http://www.w3.org/2000/svg" xmlns:xlink="http://www.w3.org/1999/xlink" xml:space="preserve" xmlns:serif="http://www.serif.com/" style="fill-rule:evenodd;clip-rule:evenodd;stroke-linejoin:round;stroke-miterlimit:2;"><g><g><path d="M22.099,33.012l-4.203,-0c-0.04,-0 -3.892,-0.021 -6.904,-0.793c-1.315,-0.339 -2.568,-0.819 -3.732,-1.408l0.804,8.115c0.062,0.61 0.502,1.074 1.026,1.074l21.815,0c0.52,0 0.96,-0.469 1.027,-1.074l0.804,-8.115c-1.164,0.589 -2.417,1.074 -3.732,1.408c-3.013,0.772 -6.869,0.793 -6.905,0.793Z" style="fill-rule:nonzero;"/><path d="M39.107,6.889l-1.573,-0.005c-0.489,-0 -0.888,0.459 -0.888,1.038c-0,0.568 -0.005,1.204 -0.005,1.83l-1.888,0l0.28,-2.816l-30.07,0l0.28,2.816l-1.889,0c-0.004,-0.626 -0.004,-1.262 -0.004,-1.83c0,-0.574 -0.4,-1.038 -0.889,-1.038l-1.572,0.005c-0.494,0 -0.893,0.475 -0.889,1.054c0.018,2.685 0.093,9.705 0.333,11.238c0.702,4.454 3.466,7.52 6.776,9.372l-0,0.005c1.319,0.735 2.723,1.288 4.123,1.648c2.852,0.741 6.567,0.772 6.664,0.772l4.203,-0c0.103,-0 3.817,-0.031 6.669,-0.767c1.395,-0.36 2.804,-0.907 4.123,-1.648l0,-0.005c3.31,-1.851 6.074,-4.918 6.776,-9.372c0.24,-1.538 0.315,-8.552 0.333,-11.238c-0,-0.579 -0.395,-1.059 -0.893,-1.059Zm-2.497,7.061c-0.044,3.051 -0.062,5.993 -1.933,8.386c-0.395,0.506 -0.835,0.955 -1.306,1.362l0,0.01c-0.933,0.798 -1.995,1.413 -3.088,1.862c-2.439,1.011 -4.945,1.392 -7.517,1.444l-5.536,0c-2.573,-0.052 -5.078,-0.433 -7.518,-1.444c-1.093,-0.454 -2.15,-1.064 -3.087,-1.862l-0,-0.01c-0.471,-0.402 -0.911,-0.856 -1.307,-1.362c-1.87,-2.393 -1.892,-5.335 -1.932,-8.386c-0,-0.156 -0.005,-0.339 -0.005,-0.495l2.231,0l0.83,7.687c0.92,1.043 2.142,1.898 3.644,2.524c2.088,0.866 4.363,1.262 7.157,1.367l5.514,-0c2.794,-0.105 5.069,-0.501 7.158,-1.367c1.501,-0.626 2.723,-1.481 3.643,-2.524l0.826,-7.687l2.231,0c-0.001,0.156 -0.005,0.339 -0.005,0.495Z" style="fill-rule:nonzero;"/><path d="M3.71,4.902l32.576,0c0.488,0 0.902,-0.474 0.902,-1.048l-0,-2.811c-0,-0.574 -0.409,-1.043 -0.902,-1.043l-32.576,0c-0.489,0 -0.911,0.469 -0.911,1.043l0,2.811c0,0.574 0.422,1.048 0.911,1.048Z" style="fill-rule:nonzero;"/></g></g></svg>