<?xml version="1.0" encoding="UTF-8" standalone="no"?>
<!DOCTYPE svg PUBLIC "-//W3C//DTD SVG 1.1//EN" "http://www.w3.org/Graphics/SVG/1.1/DTD/svg11.dtd">
<svg width="100%" height="100%" viewBox="0 0 40 40" version="1.1" xmlns="http://www.w3.org/2000/svg" xmlns:xlink="http://www.w3.org/1999/xlink" xml:space="preserve" xmlns:serif="http://www.serif.com/" style="fill-rule:evenodd;clip-rule:evenodd;stroke-linejoin:round;stroke-miterlimit:2;">
    <g transform="matrix(2,0,0,2.10526,-4,-4.21053)">
        <path d="M16,11C16.283,11 16.521,10.904 16.713,10.712C16.904,10.521 17,10.283 17,10C17,9.717 16.904,9.479 16.713,9.288C16.521,9.096 16.283,9 16,9C15.717,9 15.479,9.096 15.288,9.288C15.096,9.479 15,9.717 15,10C15,10.283 15.096,10.521 15.288,10.712C15.479,10.904 15.717,11 16,11ZM8,9L13,9L13,7L8,7L8,9ZM4.5,21C3.933,19.1 3.375,17.204 2.825,15.313C2.275,13.421 2,11.483 2,9.5C2,7.967 2.533,6.667 3.6,5.6C4.667,4.533 5.967,4 7.5,4L12.5,4C12.983,3.367 13.571,2.875 14.263,2.525C14.954,2.175 15.7,2 16.5,2C16.917,2 17.271,2.146 17.563,2.438C17.854,2.729 18,3.083 18,3.5C18,3.6 17.988,3.7 17.963,3.8C17.938,3.9 17.908,3.992 17.875,4.075C17.808,4.258 17.746,4.446 17.688,4.637C17.629,4.829 17.583,5.025 17.55,5.225L19.825,7.5L22,7.5L22,14.475L19.175,15.4L17.5,21L12,21L12,19L10,19L10,21L4.5,21ZM6,19L8,19L8,17L14,17L14,19L16,19L17.55,13.85L20,13.025L20,9.5L19,9.5L15.5,6C15.5,5.667 15.521,5.346 15.563,5.037C15.604,4.729 15.667,4.417 15.75,4.1C15.267,4.233 14.842,4.462 14.475,4.787C14.108,5.113 13.842,5.517 13.675,6L7.5,6C6.533,6 5.708,6.342 5.025,7.025C4.342,7.708 4,8.533 4,9.5C4,11.133 4.225,12.729 4.675,14.288C5.125,15.846 5.567,17.417 6,19Z" style="fill-rule:nonzero;"/>
    </g>
</svg>
