<?xml version="1.0" encoding="UTF-8" standalone="no"?>
<!DOCTYPE svg PUBLIC "-//W3C//DTD SVG 1.1//EN" "http://www.w3.org/Graphics/SVG/1.1/DTD/svg11.dtd">
<svg width="100%" height="100%" viewBox="0 0 40 40" version="1.1" xmlns="http://www.w3.org/2000/svg" xmlns:xlink="http://www.w3.org/1999/xlink" xml:space="preserve" xmlns:serif="http://www.serif.com/" style="fill-rule:evenodd;clip-rule:evenodd;stroke-linejoin:round;stroke-miterlimit:2;">
    <g transform="matrix(2.22222,0,0,2.22222,-6.66667,-6.66667)">
        <path d="M8,17C8.283,17 8.521,16.904 8.713,16.713C8.904,16.521 9,16.283 9,16C9,15.717 8.904,15.479 8.713,15.288C8.521,15.096 8.283,15 8,15C7.717,15 7.479,15.096 7.288,15.288C7.096,15.479 7,15.717 7,16C7,16.283 7.096,16.521 7.288,16.713C7.479,16.904 7.717,17 8,17ZM8,13C8.283,13 8.521,12.904 8.713,12.712C8.904,12.521 9,12.283 9,12C9,11.717 8.904,11.479 8.713,11.288C8.521,11.096 8.283,11 8,11C7.717,11 7.479,11.096 7.288,11.288C7.096,11.479 7,11.717 7,12C7,12.283 7.096,12.521 7.288,12.712C7.479,12.904 7.717,13 8,13ZM8,9C8.283,9 8.521,8.904 8.713,8.712C8.904,8.521 9,8.283 9,8C9,7.717 8.904,7.479 8.713,7.287C8.521,7.096 8.283,7 8,7C7.717,7 7.479,7.096 7.288,7.287C7.096,7.479 7,7.717 7,8C7,8.283 7.096,8.521 7.288,8.712C7.479,8.904 7.717,9 8,9ZM11,17L17,17L17,15L11,15L11,17ZM11,13L17,13L17,11L11,11L11,13ZM11,9L17,9L17,7L11,7L11,9ZM5,21C4.45,21 3.979,20.804 3.588,20.413C3.196,20.021 3,19.55 3,19L3,5C3,4.45 3.196,3.979 3.588,3.587C3.979,3.196 4.45,3 5,3L19,3C19.55,3 20.021,3.196 20.413,3.587C20.804,3.979 21,4.45 21,5L21,19C21,19.55 20.804,20.021 20.413,20.413C20.021,20.804 19.55,21 19,21L5,21ZM5,19L19,19L19,5L5,5L5,19ZM5,5L5,19L5,5Z" style="fill-rule:nonzero;"/>
    </g>
</svg>
