<?xml version="1.0" encoding="UTF-8" standalone="no"?>
<!DOCTYPE svg PUBLIC "-//W3C//DTD SVG 1.1//EN" "http://www.w3.org/Graphics/SVG/1.1/DTD/svg11.dtd">
<svg width="100%" height="100%" viewBox="0 0 40 40" version="1.1" xmlns="http://www.w3.org/2000/svg" xmlns:xlink="http://www.w3.org/1999/xlink" xml:space="preserve" xmlns:serif="http://www.serif.com/" style="fill-rule:evenodd;clip-rule:evenodd;stroke-linejoin:round;stroke-miterlimit:2;">
    <g transform="matrix(0.833333,0,0,0.833333,2.92359e-15,7.03141e-16)">
        <path d="M48,10.159L48,43.847C48,44.999 47.596,45.98 46.788,46.788C45.979,47.596 44.999,48 43.847,48L4.154,48C3.001,48 2.021,47.596 1.212,46.788C0.404,45.979 -0,44.999 -0,43.847L-0,4.153C-0,3.001 0.404,2.021 1.212,1.212C2.021,0.404 3.001,-0 4.154,-0L37.841,-0L48,10.159ZM45.692,11.203L36.797,2.308L4.154,2.308C3.616,2.308 3.173,2.481 2.827,2.827C2.481,3.173 2.308,3.615 2.308,4.153L2.308,43.847C2.308,44.384 2.481,44.827 2.827,45.173C3.173,45.519 3.616,45.692 4.154,45.692L43.847,45.692C44.385,45.692 44.827,45.519 45.173,45.173C45.519,44.827 45.692,44.384 45.692,43.847L45.692,11.203ZM23.982,37.414C25.474,37.414 26.756,36.884 27.827,35.824C28.899,34.764 29.435,33.489 29.435,31.997C29.435,30.504 28.905,29.223 27.845,28.151C26.785,27.08 25.51,26.544 24.018,26.544C22.526,26.544 21.244,27.074 20.173,28.134C19.101,29.193 18.566,30.469 18.566,31.961C18.566,33.453 19.095,34.735 20.155,35.807C21.215,36.878 22.491,37.414 23.982,37.414ZM8.072,16.489L30.248,16.489L30.248,8.071L8.072,8.071L8.072,16.489ZM2.308,2.308L2.308,45.692L2.308,2.308Z" style="fill-rule:nonzero;"/>
    </g>
</svg>
