<?xml version="1.0" encoding="UTF-8" standalone="no"?>
<!DOCTYPE svg PUBLIC "-//W3C//DTD SVG 1.1//EN" "http://www.w3.org/Graphics/SVG/1.1/DTD/svg11.dtd">
<svg width="100%" height="100%" viewBox="0 0 40 40" version="1.1" xmlns="http://www.w3.org/2000/svg" xmlns:xlink="http://www.w3.org/1999/xlink" xml:space="preserve" xmlns:serif="http://www.serif.com/" style="fill-rule:evenodd;clip-rule:evenodd;stroke-linejoin:round;stroke-miterlimit:2;">
    <g transform="matrix(2.35294,0,0,2,-7.05882,-4)">
        <path d="M9,18C8.45,18 7.979,17.804 7.588,17.413C7.196,17.021 7,16.55 7,16L7,4C7,3.45 7.196,2.979 7.588,2.587C7.979,2.196 8.45,2 9,2L18,2C18.55,2 19.021,2.196 19.413,2.587C19.804,2.979 20,3.45 20,4L20,16C20,16.55 19.804,17.021 19.413,17.413C19.021,17.804 18.55,18 18,18L9,18ZM9,16L18,16L18,4L9,4L9,16ZM5,22C4.45,22 3.979,21.804 3.588,21.413C3.196,21.021 3,20.55 3,20L3,6L5,6L5,20L16,20L16,22L5,22ZM9,16L9,4L9,16Z" style="fill-rule:nonzero;"/>
    </g>
</svg>
