<?xml version="1.0" encoding="UTF-8" standalone="no"?>
<!DOCTYPE svg PUBLIC "-//W3C//DTD SVG 1.1//EN" "http://www.w3.org/Graphics/SVG/1.1/DTD/svg11.dtd">
<svg width="100%" height="100%" viewBox="0 0 40 40" version="1.1" xmlns="http://www.w3.org/2000/svg" xmlns:xlink="http://www.w3.org/1999/xlink" xml:space="preserve" xmlns:serif="http://www.serif.com/" style="fill-rule:evenodd;clip-rule:evenodd;stroke-linejoin:round;stroke-miterlimit:2;">
    <g transform="matrix(0.0563065,0,0,0.0555556,-7.02712,46.6667)">
        <path d="M280,-120C258,-120 239.167,-127.833 223.5,-143.5C207.833,-159.167 200,-178 200,-200L200,-720L160,-720L160,-800L360,-800L360,-840L600,-840L600,-800L800,-800L800,-720L760,-720L760,-200C760,-178 752.167,-159.167 736.5,-143.5C720.833,-127.833 702,-120 680,-120L280,-120ZM680,-720L280,-720L280,-200L680,-200L680,-720ZM360,-280L440,-280L440,-640L360,-640L360,-280ZM520,-280L600,-280L600,-640L520,-640L520,-280ZM280,-720L280,-200L280,-720Z" style="fill:rgb(31,31,31);fill-rule:nonzero;"/>
    </g>
</svg>
