<?xml version="1.0" encoding="UTF-8" standalone="no"?>
<!DOCTYPE svg PUBLIC "-//W3C//DTD SVG 1.1//EN" "http://www.w3.org/Graphics/SVG/1.1/DTD/svg11.dtd">
<svg width="100%" height="100%" viewBox="0 0 40 40" version="1.1" xmlns="http://www.w3.org/2000/svg" xmlns:xlink="http://www.w3.org/1999/xlink" xml:space="preserve" xmlns:serif="http://www.serif.com/" style="fill-rule:evenodd;clip-rule:evenodd;stroke-linejoin:round;stroke-miterlimit:2;">
    <g transform="matrix(0.0543316,0,0,0.05,-6.1023,44)">
        <path d="M482,-80C444,-80 410.333,-92 381,-116C351.667,-140 333.333,-170.667 326,-208C290.667,-196.667 255,-197.333 219,-210C183,-222.667 155.333,-244.667 136,-276C116,-308 108.667,-343.5 114,-382.5C119.333,-421.5 136.667,-454 166,-480C138,-505.333 121.167,-536.667 115.5,-574C109.833,-611.333 116,-646 134,-678C152,-710 179.167,-733.167 215.5,-747.5C251.833,-761.833 288,-763.333 324,-752C331.333,-789.333 349.667,-820 379,-844C408.333,-868 442,-880 480,-880C518,-880 551.667,-868 581,-844C610.333,-820 628.667,-789.333 636,-752C673.333,-763.333 709.5,-762.333 744.5,-749C779.5,-735.667 806.667,-712 826,-678C844,-644.667 850.5,-609.833 845.5,-573.5C840.5,-537.167 823.333,-506 794,-480C823.333,-454 840.833,-421.833 846.5,-383.5C852.167,-345.167 846,-309.333 828,-276C808.667,-242 781.5,-219.333 746.5,-208C711.5,-196.667 675.333,-196.667 638,-208C630.667,-170.667 612.333,-140 583,-116C553.667,-92 520,-80 482,-80ZM482,-160C513.333,-160 536.833,-173.5 552.5,-200.5C568.167,-227.5 568,-254 552,-280L524,-326C516.667,-324 509.667,-322.5 503,-321.5C496.333,-320.5 489.333,-320 482,-320C475.333,-320 468.5,-320.5 461.5,-321.5C454.5,-322.5 447.333,-324 440,-326L412,-280C396,-254 395.833,-227.5 411.5,-200.5C427.167,-173.5 450.667,-160 482,-160ZM202,-320C218,-292.667 241.5,-279 272.5,-279C303.5,-279 326.667,-292.667 342,-320L368,-366C362.667,-371.333 357.667,-377 353,-383C348.333,-389 344.333,-395.333 341,-402C337.667,-408 334.667,-414.167 332,-420.5C329.333,-426.833 327,-433.333 325,-440L272,-440C240.667,-440 217.333,-426.833 202,-400.5C186.667,-374.167 186.667,-347.333 202,-320ZM618,-320C633.333,-292.667 656.5,-279 687.5,-279C718.5,-279 742,-292.667 758,-320C773.333,-347.333 773.333,-374.167 758,-400.5C742.667,-426.833 719.333,-440 688,-440L635,-440C633.667,-433.333 631.5,-426.833 628.5,-420.5C625.5,-414.167 622.333,-408 619,-402C615.667,-395.333 611.667,-389 607,-383C602.333,-377 597.333,-371.333 592,-366L618,-320ZM325,-520C327,-527.333 329.5,-534.5 332.5,-541.5C335.5,-548.5 338.667,-555 342,-561C345.333,-567 349.167,-572.667 353.5,-578C357.833,-583.333 362.667,-588.667 368,-594L342,-640C326.667,-667.333 303.5,-681 272.5,-681C241.5,-681 218,-667.333 202,-640C186.667,-612.667 186.667,-585.833 202,-559.5C217.333,-533.167 240.667,-520 272,-520L325,-520ZM688,-520C719.333,-520 742.667,-533.167 758,-559.5C773.333,-585.833 773.333,-612.667 758,-640C742,-667.333 718.5,-681 687.5,-681C656.5,-681 633.333,-667.333 618,-640L592,-594C597.333,-588.667 602.167,-583.333 606.5,-578C610.833,-572.667 614.667,-567 618,-561C621.333,-555 624.5,-548.5 627.5,-541.5C630.5,-534.5 633,-527.333 635,-520L688,-520ZM437,-634C444.333,-636 451.5,-637.5 458.5,-638.5C465.5,-639.5 472.667,-640 480,-640C487.333,-640 494.5,-639.5 501.5,-638.5C508.5,-637.5 515.667,-636 523,-634L550,-680C565.333,-706 565.333,-732.5 550,-759.5C534.667,-786.5 511.333,-800 480,-800C448.667,-800 425.333,-786.667 410,-760C394.667,-733.333 394.667,-706.667 410,-680L437,-634ZM437,-634C444.333,-636 451.5,-637.5 458.5,-638.5C465.5,-639.5 472.667,-640 480,-640C487.333,-640 494.5,-639.5 501.5,-638.5C508.5,-637.5 515.667,-636 523,-634C515.667,-636 508.5,-637.5 501.5,-638.5C494.5,-639.5 487.333,-640 480,-640C472.667,-640 465.5,-639.5 458.5,-638.5C451.5,-637.5 444.333,-636 437,-634ZM341,-402C337.667,-408 334.667,-414.167 332,-420.5C329.333,-426.833 327,-433.333 325,-440C327,-433.333 329.333,-426.833 332,-420.5C334.667,-414.167 337.667,-408 341,-402C344.333,-395.333 348.333,-389 353,-383C357.667,-377 362.667,-371.333 368,-366C362.667,-371.333 357.667,-377 353,-383C348.333,-389 344.333,-395.333 341,-402ZM325,-520C327,-527.333 329.5,-534.5 332.5,-541.5C335.5,-548.5 338.667,-555 342,-561C345.333,-567 349.167,-572.667 353.5,-578C357.833,-583.333 362.667,-588.667 368,-594C362.667,-588.667 357.833,-583.333 353.5,-578C349.167,-572.667 345.333,-567 342,-561C338.667,-555 335.5,-548.5 332.5,-541.5C329.5,-534.5 327,-527.333 325,-520ZM482,-320C475.333,-320 468.5,-320.5 461.5,-321.5C454.5,-322.5 447.333,-324 440,-326C447.333,-324 454.5,-322.5 461.5,-321.5C468.5,-320.5 475.333,-320 482,-320C489.333,-320 496.333,-320.5 503,-321.5C509.667,-322.5 516.667,-324 524,-326C516.667,-324 509.667,-322.5 503,-321.5C496.333,-320.5 489.333,-320 482,-320ZM592,-366C597.333,-371.333 602.333,-377 607,-383C611.667,-389 615.667,-395.333 619,-402C622.333,-408 625.5,-414.167 628.5,-420.5C631.5,-426.833 633.667,-433.333 635,-440C633.667,-433.333 631.5,-426.833 628.5,-420.5C625.5,-414.167 622.333,-408 619,-402C615.667,-395.333 611.667,-389 607,-383C602.333,-377 597.333,-371.333 592,-366ZM635,-520C633,-527.333 630.5,-534.5 627.5,-541.5C624.5,-548.5 621.333,-555 618,-561C614.667,-567 610.833,-572.667 606.5,-578C602.167,-583.333 597.333,-588.667 592,-594C597.333,-588.667 602.167,-583.333 606.5,-578C610.833,-572.667 614.667,-567 618,-561C621.333,-555 624.5,-548.5 627.5,-541.5C630.5,-534.5 633,-527.333 635,-520ZM480,-400C502,-400 520.833,-407.833 536.5,-423.5C552.167,-439.167 560,-458 560,-480C560,-502 552.167,-520.833 536.5,-536.5C520.833,-552.167 502,-560 480,-560C458,-560 439.167,-552.167 423.5,-536.5C407.833,-520.833 400,-502 400,-480C400,-458 407.833,-439.167 423.5,-423.5C439.167,-407.833 458,-400 480,-400Z" style="fill:rgb(31,31,31);fill-rule:nonzero;"/>
    </g>
</svg>
